<svg xmlns="http://www.w3.org/2000/svg" viewBox="0 0 512 512" fill="#a9b7c6"><!--Icon created for Marv and available under the Marv license: https://github.com/SecretSheppy/marv/blob/main/LICENSE --><path d="M 109.97656 19.447266 C 102.69819 19.654493 95.498325 22.651284 90.080078 28.386719 C 79.243569 39.857577 79.755684 57.815885 91.226562 68.652344 L 235.33008 204.78516 C 242.79652 211.8383 253.00418 214.05436 262.21484 211.59961 C 267.25684 210.59309 272.09784 208.23478 276.13867 204.44336 L 420.70312 68.800781 C 432.21082 58.003442 432.78374 40.046761 421.98633 28.539062 C 411.18891 17.031394 393.23032 16.460433 381.72266 27.257812 L 255.61523 145.58203 L 130.34766 27.240234 C 124.61223 21.82199 117.25494 19.240038 109.97656 19.447266 z M 255.17773 301.00195 C 248.07101 300.92013 240.92991 303.48944 235.33008 308.7793 L 91.226562 444.91016 C 79.755681 455.74662 79.243566 473.70688 90.080078 485.17773 C 100.91657 496.6486 118.8768 497.16071 130.34766 486.32422 L 255.61523 367.98242 L 381.72266 486.30664 C 393.23032 497.10402 411.18891 496.53306 421.98633 485.02539 C 432.78374 473.51769 432.21082 455.55906 420.70312 444.76172 L 276.13867 309.11914 C 272.09784 305.32772 267.25684 302.97136 262.21484 301.96484 C 259.91218 301.35116 257.54664 301.02923 255.17773 301.00195 z " /></svg>