<svg xmlns="http://www.w3.org/2000/svg" viewBox="0 0 512 512" fill="#a9b7c6"><!--Icon created for Marv and available under the Marv license: https://github.com/SecretSheppy/marv/blob/main/LICENSE --><path d="M 256 3.2089844 A 252.7916 252.7916 0 0 0 3.2089844 256 A 252.7916 252.7916 0 0 0 256 508.79102 A 252.7916 252.7916 0 0 0 508.79102 256 A 252.7916 252.7916 0 0 0 256 3.2089844 z M 278.68359 48.804688 A 208.43732 208.43732 0 0 1 463.20117 233.36133 C 461.68756 233.05176 460.11952 232.88672 458.51172 232.88672 L 384.93555 232.88672 C 372.13059 232.88672 361.82227 243.19504 361.82227 256 C 361.82227 268.80496 372.13059 279.11328 384.93555 279.11328 L 458.51172 279.11328 C 460.11952 279.11328 461.68756 278.94824 463.20117 278.63867 A 208.43732 208.43732 0 0 1 278.69336 463.19336 C 278.94092 461.83302 279.11328 460.44369 279.11328 459.00977 L 279.11328 385.43359 C 279.11328 372.62865 268.80496 362.32031 256 362.32031 C 243.19504 362.32031 232.88672 372.62865 232.88672 385.43359 L 232.88672 459.00977 C 232.88672 460.25626 233.0638 461.45451 233.25195 462.64648 A 208.43732 208.43732 0 0 1 49.345703 278.65625 C 50.81903 278.94877 52.340564 279.11328 53.902344 279.11328 L 127.47852 279.11328 C 140.28346 279.11328 150.5918 268.80496 150.5918 256 C 150.5918 243.19504 140.28346 232.88672 127.47852 232.88672 L 53.902344 232.88672 C 52.340564 232.88672 50.81903 233.05123 49.345703 233.34375 A 208.43732 208.43732 0 0 1 233.26172 49.351562 C 233.06332 50.574433 232.88672 51.807263 232.88672 53.087891 L 232.88672 126.66406 C 232.88672 139.46902 243.19504 149.77734 256 149.77734 C 268.80496 149.77734 279.11328 139.46902 279.11328 126.66406 L 279.11328 53.087891 C 279.11328 51.619828 278.94281 50.195346 278.68359 48.804688 z " /></svg>