<svg xmlns="http://www.w3.org/2000/svg" viewBox="0 0 512 512" fill="#a9b7c6"><!--Icon created for Marv and available under the Marv license: https://github.com/SecretSheppy/marv/blob/main/LICENSE --><path d="M 255.17773 19.4375 C 248.07101 19.355682 240.92991 21.924987 235.33008 27.214844 L 91.226562 163.34766 C 79.755684 174.18412 79.243569 192.14242 90.080078 203.61328 C 100.91657 215.08415 118.8768 215.59625 130.34766 204.75977 L 255.61523 86.417969 L 381.72266 204.74219 C 393.23032 215.53957 411.18891 214.96861 421.98633 203.46094 C 432.78374 191.95324 432.21082 173.99656 420.70312 163.19922 L 276.13867 27.556641 C 272.09784 23.765224 267.25684 21.40691 262.21484 20.400391 C 259.91218 19.786704 257.54664 19.464773 255.17773 19.4375 z M 109.97656 301.01172 C 102.69819 301.21895 95.498322 304.21378 90.080078 309.94922 C 79.243566 321.42008 79.755681 339.38034 91.226562 350.2168 L 235.33008 486.34961 C 242.79652 493.40275 253.00418 495.61686 262.21484 493.16211 C 267.25684 492.15559 272.09784 489.79923 276.13867 486.00781 L 420.70312 350.36523 C 432.21082 339.5679 432.78374 321.61121 421.98633 310.10352 C 411.18891 298.59585 393.23032 298.02293 381.72266 308.82031 L 255.61523 427.14453 L 130.34766 308.80469 C 124.61223 303.38644 117.25494 300.80449 109.97656 301.01172 z " /></svg>